<svg width="54" height="41" viewBox="0 0 54 41" fill="none" xmlns="http://www.w3.org/2000/svg">
<path d="M17.264 8.64C18.416 8.64 19.25 8.928 19.766 9.504C20.282 10.068 20.54 10.932 20.54 12.096C20.54 12.432 20.492 13.992 20.396 16.776L21.908 16.92C21.908 17.256 21.806 17.616 21.602 18H17.462L17.408 17.37C17.96 17.178 18.5 17.034 19.028 16.938C18.956 13.794 18.89 12.048 18.83 11.7C18.782 11.34 18.698 11.028 18.578 10.764C18.458 10.5 18.278 10.314 18.038 10.206C17.798 10.098 17.48 10.044 17.084 10.044C16.292 10.044 15.524 10.236 14.78 10.62C14.708 13.356 14.66 15.408 14.636 16.776L16.148 16.92C16.148 17.256 16.046 17.616 15.842 18H11.702L11.648 17.37C12.2 17.178 12.74 17.034 13.268 16.938C13.196 13.89 13.136 11.634 13.088 10.17C12.428 10.134 11.9 10.062 11.504 9.954L11.576 9.018C12.224 8.838 13.166 8.748 14.402 8.748C14.546 8.964 14.654 9.276 14.726 9.684C15.242 9.408 15.758 9.168 16.274 8.964C16.802 8.748 17.132 8.64 17.264 8.64ZM26.8978 17.136C27.9058 17.136 28.5838 16.824 28.9318 16.2C29.2918 15.564 29.4718 14.664 29.4718 13.5C29.4718 11.652 29.0638 10.494 28.2478 10.026C27.9118 9.834 27.4378 9.738 26.8258 9.738C26.2258 9.738 25.6558 9.864 25.1158 10.116C24.6358 11.04 24.3958 12.114 24.3958 13.338C24.3958 14.514 24.5518 15.42 24.8638 16.056C25.2238 16.776 25.9018 17.136 26.8978 17.136ZM22.7398 13.5C22.7398 11.976 23.0878 10.788 23.7838 9.936C24.4798 9.072 25.5538 8.64 27.0058 8.64C28.4578 8.64 29.5078 9.036 30.1558 9.828C30.8038 10.608 31.1278 11.766 31.1278 13.302C31.1278 14.838 30.7798 16.044 30.0838 16.92C29.3998 17.796 28.3558 18.234 26.9518 18.234C25.5478 18.234 24.4918 17.826 23.7838 17.01C23.0878 16.194 22.7398 15.024 22.7398 13.5ZM33.7573 16.884L33.6133 10.098H32.2273L32.1733 9.468C32.2933 9.384 32.6413 9.228 33.2173 9L34.6933 6.696C34.9333 6.72 35.1193 6.78 35.2513 6.876L35.2333 8.856C36.1333 8.856 36.8713 8.916 37.4473 9.036C37.4473 9.36 37.3453 9.714 37.1413 10.098H35.1973C35.1733 11.538 35.1493 13.722 35.1253 16.65C35.7973 16.686 36.4693 16.806 37.1413 17.01L37.1233 17.64C36.9553 17.748 36.5233 17.874 35.8273 18.018C35.1433 18.162 34.5793 18.234 34.1353 18.234C34.0753 18.138 33.9973 17.934 33.9013 17.622C33.8053 17.298 33.7573 17.052 33.7573 16.884Z" fill="black"/>
<line x1="2.01136" y1="26.5001" x2="46.0114" y2="27.5001" stroke="black"/>
<path d="M17.0284 20.9091H15.4688V31.2131H15.3409L8.18182 20.9091H6.64773V34H8.23295V23.7216H8.3608L15.4943 34H17.0284V20.9091ZM24.1124 34.2045C26.1067 34.2045 27.5641 33.2074 28.0243 31.7244L26.5669 31.3153C26.1834 32.3381 25.2949 32.8494 24.1124 32.8494C22.3418 32.8494 21.1209 31.7053 21.0506 29.6023H28.1777V28.9631C28.1777 25.3068 26.0044 24.054 23.959 24.054C21.2999 24.054 19.5357 26.1506 19.5357 29.1676C19.5357 32.1847 21.2743 34.2045 24.1124 34.2045ZM21.0506 28.2983C21.1529 26.7706 22.2331 25.4091 23.959 25.4091C25.5953 25.4091 26.6436 26.6364 26.6436 28.2983H21.0506ZM31.3338 24.1818H29.5952L32.7145 29.0909L29.5952 34H31.3338L33.6861 30.1903L36.0384 34H37.777L34.6065 29.0909L37.777 24.1818H36.0384L33.6861 28.196L31.3338 24.1818ZM44.1994 24.1818H42.1028V21.8295H40.5943V24.1818H39.1113V25.4602H40.5943V31.5966C40.5943 33.3097 41.975 34.1278 43.2534 34.1278C43.8159 34.1278 44.1738 34.0256 44.3784 33.9489L44.0716 32.5938C43.9437 32.6193 43.7392 32.6705 43.4068 32.6705C42.742 32.6705 42.1028 32.4659 42.1028 31.1875V25.4602H44.1994V24.1818Z" fill="black"/>
</svg>
